<?xml version="1.0" encoding="UTF-8"?>
<svg id="Layer_2" data-name="Layer 2" xmlns="http://www.w3.org/2000/svg" viewBox="0 0 272.18 182.15">
  <defs>
    <style>
      .cls-1 {
        fill: none;
        stroke: #6cc294;
        stroke-miterlimit: 10;
        stroke-width: 9px;
      }

      .cls-2 {
        fill: #6cc294;
        stroke-width: 0px;
      }
    </style>
  </defs>
  <g id="Layer_1-2" data-name="Layer 1">
    <g>
      <path class="cls-2" d="m137.62,9c24.26,0,44,19.74,44,44s-19.74,44-44,44-44-19.74-44-44,19.74-44,44-44m0-9c-29.27,0-53,23.73-53,53s23.73,53,53,53,53-23.73,53-53S166.9,0,137.62,0h0Z"/>
      <rect class="cls-2" x="128.12" y="114.5" width="18" height="18"/>
      <polygon class="cls-2" points="149.85 162 157.28 169.42 144.54 182.15 137.12 174.73 129.71 182.15 116.97 169.42 124.4 162 116.97 154.58 129.71 141.85 137.12 149.27 144.54 141.85 157.28 154.58 149.85 162"/>
      <rect class="cls-2" x="90.12" y="153.5" width="18" height="18" rx="4.89" ry="4.89"/>
      <rect class="cls-2" x="63.12" y="153.5" width="18" height="18" rx="4.89" ry="4.89"/>
      <rect class="cls-2" x="44.87" y="156.5" width="12.5" height="12.5" rx="4.89" ry="4.89"/>
      <rect class="cls-2" x="26.12" y="156.5" width="12.5" height="12.5" rx="4.89" ry="4.89"/>
      <path class="cls-1" d="m84.7,54h105.42s-105.42,0-105.42,0Z"/>
      <path class="cls-2" d="m137.12,11c6.57,0,16.5,16.95,16.5,42.5s-9.93,42.5-16.5,42.5-16.5-16.95-16.5-42.5,9.93-42.5,16.5-42.5m0-9c-14.08,0-25.5,23.06-25.5,51.5s11.42,51.5,25.5,51.5,25.5-23.06,25.5-51.5S151.21,2,137.12,2h0Z"/>
      <rect class="cls-2" x="165.62" y="154.07" width="18" height="18" rx="4.89" ry="4.89" transform="translate(349.25 326.15) rotate(180)"/>
      <rect class="cls-2" x="192.62" y="154.07" width="18" height="18" rx="4.89" ry="4.89" transform="translate(403.25 326.15) rotate(180)"/>
      <rect class="cls-2" x="216.38" y="157.07" width="12.5" height="12.5" rx="4.89" ry="4.89" transform="translate(445.25 326.65) rotate(180)"/>
      <rect class="cls-2" x="235.12" y="157.07" width="12.5" height="12.5" rx="4.89" ry="4.89" transform="translate(482.75 326.65) rotate(180)"/>
      <rect class="cls-2" x="12.26" y="158.82" width="8.18" height="8.18" rx="4.09" ry="4.09"/>
      <rect class="cls-2" x="0" y="158.82" width="8.18" height="8.18" rx="4.09" ry="4.09"/>
      <rect class="cls-2" x="264" y="159.25" width="8.18" height="8.18" rx="4.09" ry="4.09"/>
      <rect class="cls-2" x="251.74" y="159.25" width="8.18" height="8.18" rx="4.09" ry="4.09"/>
    </g>
  </g>
</svg>